<?xml version="1.0" encoding="utf-8"?>
<!-- Generator: Adobe Illustrator 24.0.3, SVG Export Plug-In . SVG Version: 6.00 Build 0)  -->
<!DOCTYPE svg PUBLIC "-//W3C//DTD SVG 1.1//EN" "http://www.w3.org/Graphics/SVG/1.1/DTD/svg11.dtd" [
	<!ENTITY ns_extend "http://ns.adobe.com/Extensibility/1.0/">
	<!ENTITY ns_ai "http://ns.adobe.com/AdobeIllustrator/10.0/">
	<!ENTITY ns_graphs "http://ns.adobe.com/Graphs/1.0/">
	<!ENTITY ns_vars "http://ns.adobe.com/Variables/1.0/">
	<!ENTITY ns_imrep "http://ns.adobe.com/ImageReplacement/1.0/">
	<!ENTITY ns_sfw "http://ns.adobe.com/SaveForWeb/1.0/">
	<!ENTITY ns_custom "http://ns.adobe.com/GenericCustomNamespace/1.0/">
	<!ENTITY ns_adobe_xpath "http://ns.adobe.com/XPath/1.0/">
]>
<svg version="1.1" id="Layer_1" xmlns:x="&ns_extend;" xmlns:i="&ns_ai;" xmlns:graph="&ns_graphs;"
	 xmlns="http://www.w3.org/2000/svg" xmlns:xlink="http://www.w3.org/1999/xlink" x="0px" y="0px" viewBox="0 0 256 256"
	 style="enable-background:new 0 0 256 256;" xml:space="preserve">
<style type="text/css">
	.st0{fill:none;}
</style>
<metadata>
	<sfw  xmlns="&ns_sfw;">
		<slices></slices>
		<sliceSourceBounds  bottomLeftOrigin="true" height="256" width="256" x="0" y="0"></sliceSourceBounds>
	</sfw>
</metadata>
<rect x="0" class="st0" width="256" height="256"/>
<g transform="translate(0 1235.5)">
	<path d="M256-1203.5v164c0,16-11.7,28-26.3,28H34.8c-24.1,0-34.8-10.3-34.8-40.9v-117.8h33.8v-33.3L256-1203.5L256-1203.5z
		 M33.8-1154.1H16.1v101.7c0,15.6,3.7,23.1,8.5,23.1c5.8,0,9.2-7.5,9.2-23.1L33.8-1154.1z M239.9-1187.4h-190v135
		c0,10.9-2,18.7-5.1,24.8h184.9c6.1,0,10.2-7.1,10.2-11.9L239.9-1187.4z M124.4-1120.6H77.3v-6.1h47.1V-1120.6z M124.4-1100.6H77.3
		v-6.1h47.1V-1100.6z M124.4-1081.2H77.3v-6.1h47.1V-1081.2z M124.4-1062.6H77.3v-6.1h47.1V-1062.6z M87.8-1158.3h113.1v11.3H87.8
		V-1158.3z M141.4-1126.8h72.3v57.8h-72.3V-1126.8z"/>
</g>
</svg>
